<?xml version="1.0" standalone="no"?><!DOCTYPE svg PUBLIC "-//W3C//DTD SVG 1.1//EN" "http://www.w3.org/Graphics/SVG/1.1/DTD/svg11.dtd"><svg t="1533022890679" class="icon" style="" viewBox="0 0 1024 1024" version="1.1" xmlns="http://www.w3.org/2000/svg" p-id="5315" xmlns:xlink="http://www.w3.org/1999/xlink" width="32" height="32"><defs><style type="text/css"></style></defs><path fill="#52c41a" d="M401.066667 721.066667l332.8-187.733334c17.066667-8.533333 17.066667-29.866667 0-38.4L401.066667 302.933333c-12.8-8.533333-34.133333 4.266667-34.133334 21.333334v379.733333c4.266667 17.066667 21.333333 25.6 34.133334 17.066667zM503.466667 0C354.133333 0 217.6 64 123.733333 162.133333l-21.333333 21.333334L0 81.066667v277.333333h281.6L179.2 256C256 162.133333 371.2 102.4 503.466667 102.4c230.4 0 418.133333 183.466667 418.133333 409.6s-187.733333 409.6-418.133333 409.6c-183.466667 0-337.066667-115.2-392.533334-277.333333H0C59.733333 861.866667 260.266667 1024 503.466667 1024 789.333333 1024 1024 793.6 1024 512S789.333333 0 503.466667 0z" p-id="5316"></path></svg>